{"title":"Countdown.to.UFC.155.720p.HDTV.x264-TTVa","uid":7965089,"size":1728726080,"categoryP":"video","categoryS":"hd___tv_shows","magnet":"?xt=urn:btih:ad5028df3f814917065bc4757510f770f1144619&amp;dn=Countdown.to.UFC.155.720p.HDTV.x264-TTVa&amp;tr=udp%3A%2F%2Ftracker.openbittorrent.com%3A80&amp;tr=udp%3A%2F%2Fopen.demonii.com%3A1337&amp;tr=udp%3A%2F%2Ftracker.coppersurfer.tk%3A6969&amp;tr=udp%3A%2F%2Fexodus.desync.com%3A6969","seeders":1,"leechers":0,"uploader":"scene4all","files":-1,"time":1356673909,"description":"Source = Countdown to 155 (1080i)\n\nGeneral\nFormat                                    : Matroska\nFormat version                            : Version 4 / Version 2\nFile size                                 : 1.61 GiB\nDuration                                  : 42mn 3s\nOverall bit rate                          : 5 481 Kbps\nEncoded date                              : UTC 2010-02-22 21:41:31\nWriting application                       : mkvmerge v5.9.0\nWriting library                           : libebml v1.3.0 + libmatroska v1.4.0\n\nVideo\nID                                        : 1\nFormat                                    : AVC\nFormat/Info                               : Advanced Video Codec\nFormat profile                            : &lt;a class=&quot;__cf_email__&quot; href=&quot;/cdn-cgi/l/email-protection&quot; data-cfemail=&quot;135b7a747b535f273d22&quot;&gt;[email&amp;#160;protected]&lt;/a&gt;&lt;script cf-hash='f9e31' type=&quot;text/javascript&quot;&gt;\n/* &lt;![CDATA[ */!function(){try{var t=&quot;currentScript&quot;in document?document.currentScript:function(){for(var t=document.getElementsByTagName(&quot;script&quot;),e=t.length;e--;)if(t[e].getAttribute(&quot;cf-hash&quot;))return t[e]}();if(t&amp;&amp;t.previousSibling){var e,r,n,i,c=t.previousSibling,a=c.getAttribute(&quot;data-cfemail&quot;);if(a){for(e=&quot;&quot;,r=parseInt(a.substr(0,2),16),n=2;a.length-n;n+=2)i=parseInt(a.substr(n,2),16)^r,e+=String.fromCharCode(i);e=document.createTextNode(e),c.parentNode.replaceChild(e,c)}}}catch(u){}}();/* ]]&gt; */&lt;/script&gt;\nFormat settings, CABAC                    : Yes\nFormat settings, ReFrames                 : 8 frames\nCodec ID                                  : V_MPEG4/ISO/AVC\nDuration                                  : 42mn 3s\nBit rate                                  : 4 988 Kbps\nWidth                                     : 1 280 pixels\nHeight                                    : 720 pixels\nDisplay aspect ratio                      : 16:9\nOriginal display aspect ratio             : 16:9\nFrame rate mode                           : Constant\nFrame rate                                : 29.970 fps\nColor space                               : YUV\nChroma subsampling                        : 4:2:0\nBit depth                                 : 8 bits\nScan type                                 : Progressive\nBits/(Pixel*Frame)                        : 0.181\nStream size                               : 1.47 GiB (91%)\nWriting library                           : x264 core 120\nLanguage                                  : English\nDefault                                   : Yes\nForced                                    : No\nColor primaries                           : BT.709\nTransfer characteristics                  : BT.709\nMatrix coefficients                       : BT.709\n\nAudio\nID                                        : 2\nFormat                                    : AC-3\nFormat/Info                               : Audio Coding 3\nMode extension                            : CM (complete main)\nFormat settings, Endianness               : Big\nCodec ID                                  : A_AC3\nDuration                                  : 42mn 3s\nBit rate mode                             : Constant\nBit rate                                  : 384 Kbps\nChannel(s)                                : 2 channels\nChannel positions                         : Front: L R\nSampling rate                             : 48.0 KHz\nBit depth                                 : 16 bits\nCompression mode                          : Lossy\nStream size                               : 115 MiB (7%)\nLanguage                                  : English\nDefault                                   : Yes\nForced                                    : No","torrent":{"xt":"urn:btih:ad5028df3f814917065bc4757510f770f1144619","amp;dn":"Countdown.to.UFC.155.720p.HDTV.x264-TTVa","amp;tr":["udp%3A%2F%2Ftracker.openbittorrent.com%3A80","udp%3A%2F%2Fopen.demonii.com%3A1337","udp%3A%2F%2Ftracker.coppersurfer.tk%3A6969","udp%3A%2F%2Fexodus.desync.com%3A6969"],"infoHash":"ad5028df3f814917065bc4757510f770f1144619","infoHashBuffer":{"type":"Buffer","data":[173,80,40,223,63,129,73,23,6,91,196,117,117,16,247,112,241,20,70,25]},"announce":[],"urlList":[]}}